<mxfile host="app.diagrams.net" agent="Mozilla/5.0 (Windows NT 10.0; Win64; x64) AppleWebKit/537.36 (KHTML, like Gecko) Chrome/132.0.0.0 Safari/537.36 OPR/117.0.0.0" version="26.1.3" pages="2">
  <diagram name="Страница — 1" id="_7E5mexuZW8KoOjuIzEc">
    <mxGraphModel dx="2111" dy="1491" grid="1" gridSize="10" guides="1" tooltips="1" connect="1" arrows="1" fold="1" page="0" pageScale="1" pageWidth="827" pageHeight="1169" math="0" shadow="0">
      <root>
        <mxCell id="0" />
        <mxCell id="1" parent="0" />
        <mxCell id="kdYlDeyTlTQbeeIfBlmT-3" value="Admin" style="swimlane;startSize=20;horizontal=0;html=1;whiteSpace=wrap;" parent="1" vertex="1">
          <mxGeometry x="40" y="360" width="1810" height="160" as="geometry" />
        </mxCell>
        <mxCell id="kdYlDeyTlTQbeeIfBlmT-17" value="Qida dəyərlərinin hesablanması və istifadəçiyə verilməsi" style="rounded=0;whiteSpace=wrap;html=1;" parent="kdYlDeyTlTQbeeIfBlmT-3" vertex="1">
          <mxGeometry x="650" y="50" width="100" height="60" as="geometry" />
        </mxCell>
        <mxCell id="kdYlDeyTlTQbeeIfBlmT-18" value="Qida dəyərləri uyğundurmu?" style="rounded=0;whiteSpace=wrap;html=1;" parent="kdYlDeyTlTQbeeIfBlmT-3" vertex="1">
          <mxGeometry x="800" y="50" width="90" height="60" as="geometry" />
        </mxCell>
        <mxCell id="kdYlDeyTlTQbeeIfBlmT-19" value="" style="rhombus;whiteSpace=wrap;html=1;" parent="kdYlDeyTlTQbeeIfBlmT-3" vertex="1">
          <mxGeometry x="930" y="62.5" width="40" height="35" as="geometry" />
        </mxCell>
        <mxCell id="kdYlDeyTlTQbeeIfBlmT-21" value="Fərdi qidalanma tövsiyyələri" style="rounded=0;whiteSpace=wrap;html=1;" parent="kdYlDeyTlTQbeeIfBlmT-3" vertex="1">
          <mxGeometry x="1000" y="50" width="90" height="60" as="geometry" />
        </mxCell>
        <mxCell id="kdYlDeyTlTQbeeIfBlmT-24" value="Alternativ qida seçimləri" style="rounded=0;whiteSpace=wrap;html=1;" parent="kdYlDeyTlTQbeeIfBlmT-3" vertex="1">
          <mxGeometry x="1300" y="50" width="90" height="60" as="geometry" />
        </mxCell>
        <mxCell id="kdYlDeyTlTQbeeIfBlmT-27" value="Alternativ qidalanma planı təsdiqlənir" style="rounded=0;whiteSpace=wrap;html=1;" parent="kdYlDeyTlTQbeeIfBlmT-3" vertex="1">
          <mxGeometry x="1410" y="50" width="90" height="60" as="geometry" />
        </mxCell>
        <mxCell id="kdYlDeyTlTQbeeIfBlmT-20" value="Qidalanma planı təsdiqlənir" style="rounded=0;whiteSpace=wrap;html=1;" parent="kdYlDeyTlTQbeeIfBlmT-3" vertex="1">
          <mxGeometry x="1140" y="50" width="120" height="60" as="geometry" />
        </mxCell>
        <mxCell id="kdYlDeyTlTQbeeIfBlmT-43" value="" style="endArrow=classic;html=1;rounded=0;entryX=0;entryY=0.5;entryDx=0;entryDy=0;exitX=1;exitY=0.5;exitDx=0;exitDy=0;" parent="kdYlDeyTlTQbeeIfBlmT-3" source="kdYlDeyTlTQbeeIfBlmT-17" target="kdYlDeyTlTQbeeIfBlmT-18" edge="1">
          <mxGeometry width="50" height="50" relative="1" as="geometry">
            <mxPoint x="750" y="85" as="sourcePoint" />
            <mxPoint x="800" y="35" as="targetPoint" />
          </mxGeometry>
        </mxCell>
        <mxCell id="kdYlDeyTlTQbeeIfBlmT-45" value="" style="endArrow=classic;html=1;rounded=0;entryX=0;entryY=0.5;entryDx=0;entryDy=0;exitX=1;exitY=0.5;exitDx=0;exitDy=0;" parent="kdYlDeyTlTQbeeIfBlmT-3" source="kdYlDeyTlTQbeeIfBlmT-18" target="kdYlDeyTlTQbeeIfBlmT-19" edge="1">
          <mxGeometry width="50" height="50" relative="1" as="geometry">
            <mxPoint x="920" y="80" as="sourcePoint" />
            <mxPoint x="970" y="30" as="targetPoint" />
          </mxGeometry>
        </mxCell>
        <mxCell id="kdYlDeyTlTQbeeIfBlmT-46" value="" style="endArrow=classic;html=1;rounded=0;exitX=0.5;exitY=1;exitDx=0;exitDy=0;entryX=0.5;entryY=1;entryDx=0;entryDy=0;" parent="kdYlDeyTlTQbeeIfBlmT-3" source="kdYlDeyTlTQbeeIfBlmT-19" target="kdYlDeyTlTQbeeIfBlmT-20" edge="1">
          <mxGeometry width="50" height="50" relative="1" as="geometry">
            <mxPoint x="950" y="100" as="sourcePoint" />
            <mxPoint x="1330" y="130" as="targetPoint" />
            <Array as="points">
              <mxPoint x="950" y="130" />
              <mxPoint x="1045" y="130" />
              <mxPoint x="1200" y="130" />
            </Array>
          </mxGeometry>
        </mxCell>
        <mxCell id="ZspxZMsNpHE_sinugdT3-7" value="Bəli" style="edgeLabel;html=1;align=center;verticalAlign=middle;resizable=0;points=[];" parent="kdYlDeyTlTQbeeIfBlmT-46" vertex="1" connectable="0">
          <mxGeometry x="-0.2378" y="-3" relative="1" as="geometry">
            <mxPoint as="offset" />
          </mxGeometry>
        </mxCell>
        <mxCell id="kdYlDeyTlTQbeeIfBlmT-48" value="" style="endArrow=classic;html=1;rounded=0;entryX=0.386;entryY=-0.028;entryDx=0;entryDy=0;entryPerimeter=0;" parent="kdYlDeyTlTQbeeIfBlmT-3" target="kdYlDeyTlTQbeeIfBlmT-21" edge="1">
          <mxGeometry width="50" height="50" relative="1" as="geometry">
            <mxPoint x="950" y="62.5" as="sourcePoint" />
            <mxPoint x="1210" y="-20" as="targetPoint" />
            <Array as="points">
              <mxPoint x="950" y="30" />
              <mxPoint x="1035" y="30" />
            </Array>
          </mxGeometry>
        </mxCell>
        <mxCell id="ZspxZMsNpHE_sinugdT3-6" value="Xeyr" style="edgeLabel;html=1;align=center;verticalAlign=middle;resizable=0;points=[];" parent="kdYlDeyTlTQbeeIfBlmT-48" vertex="1" connectable="0">
          <mxGeometry x="-0.186" y="-1" relative="1" as="geometry">
            <mxPoint as="offset" />
          </mxGeometry>
        </mxCell>
        <mxCell id="kdYlDeyTlTQbeeIfBlmT-49" value="" style="endArrow=classic;html=1;rounded=0;entryX=0.5;entryY=1;entryDx=0;entryDy=0;flowAnimation=1;" parent="kdYlDeyTlTQbeeIfBlmT-3" target="kdYlDeyTlTQbeeIfBlmT-22" edge="1">
          <mxGeometry width="50" height="50" relative="1" as="geometry">
            <mxPoint x="1050" y="50" as="sourcePoint" />
            <mxPoint x="1100" as="targetPoint" />
            <Array as="points">
              <mxPoint x="1050" y="-70" />
              <mxPoint x="910" y="-70" />
            </Array>
          </mxGeometry>
        </mxCell>
        <mxCell id="IZYu-i1K3xVaKCEkxSd0-5" value="" style="endArrow=classic;html=1;rounded=0;entryX=0.75;entryY=1;entryDx=0;entryDy=0;flowAnimation=1;" parent="kdYlDeyTlTQbeeIfBlmT-3" target="kdYlDeyTlTQbeeIfBlmT-21" edge="1">
          <mxGeometry width="50" height="50" relative="1" as="geometry">
            <mxPoint x="1370" y="110" as="sourcePoint" />
            <mxPoint x="1070" y="120" as="targetPoint" />
            <Array as="points">
              <mxPoint x="1370" y="190" />
              <mxPoint x="1070" y="190" />
            </Array>
          </mxGeometry>
        </mxCell>
        <mxCell id="kdYlDeyTlTQbeeIfBlmT-4" value="İstifadəçi" style="swimlane;startSize=20;horizontal=0;html=1;whiteSpace=wrap;" parent="1" vertex="1">
          <mxGeometry x="40" y="80" width="2050" height="195" as="geometry" />
        </mxCell>
        <mxCell id="kdYlDeyTlTQbeeIfBlmT-5" value="" style="ellipse;whiteSpace=wrap;html=1;aspect=fixed;" parent="kdYlDeyTlTQbeeIfBlmT-4" vertex="1">
          <mxGeometry x="30" y="60" width="40" height="40" as="geometry" />
        </mxCell>
        <mxCell id="kdYlDeyTlTQbeeIfBlmT-6" value="Qeydiyyat" style="rounded=0;whiteSpace=wrap;html=1;" parent="kdYlDeyTlTQbeeIfBlmT-4" vertex="1">
          <mxGeometry x="90" y="55" width="70" height="50" as="geometry" />
        </mxCell>
        <mxCell id="kdYlDeyTlTQbeeIfBlmT-7" value="Profil məlumatlarını daxil etmək" style="rounded=0;whiteSpace=wrap;html=1;" parent="kdYlDeyTlTQbeeIfBlmT-4" vertex="1">
          <mxGeometry x="200" y="50" width="90" height="60" as="geometry" />
        </mxCell>
        <mxCell id="kdYlDeyTlTQbeeIfBlmT-11" value="Yenidən profil məlumatlarını daxil edə bilər" style="rounded=0;whiteSpace=wrap;html=1;" parent="kdYlDeyTlTQbeeIfBlmT-4" vertex="1">
          <mxGeometry x="310" y="50" width="110" height="60" as="geometry" />
        </mxCell>
        <mxCell id="kdYlDeyTlTQbeeIfBlmT-12" value="Hədəfi qeyd etmək" style="rounded=0;whiteSpace=wrap;html=1;" parent="kdYlDeyTlTQbeeIfBlmT-4" vertex="1">
          <mxGeometry x="440" y="50" width="60" height="60" as="geometry" />
        </mxCell>
        <mxCell id="kdYlDeyTlTQbeeIfBlmT-15" value="Versiyanın seçilməsi" style="shape=process;whiteSpace=wrap;html=1;backgroundOutline=1;" parent="kdYlDeyTlTQbeeIfBlmT-4" vertex="1">
          <mxGeometry x="520" y="50" width="100" height="60" as="geometry" />
        </mxCell>
        <mxCell id="kdYlDeyTlTQbeeIfBlmT-16" value="Qida məlumatlarını daxil etmək" style="rounded=0;whiteSpace=wrap;html=1;" parent="kdYlDeyTlTQbeeIfBlmT-4" vertex="1">
          <mxGeometry x="640" y="50" width="120" height="60" as="geometry" />
        </mxCell>
        <mxCell id="kdYlDeyTlTQbeeIfBlmT-22" value="İstifadəçinin tövsiyyələri təsdiqləməsi" style="rounded=0;whiteSpace=wrap;html=1;" parent="kdYlDeyTlTQbeeIfBlmT-4" vertex="1">
          <mxGeometry x="850" y="50" width="120" height="60" as="geometry" />
        </mxCell>
        <mxCell id="kdYlDeyTlTQbeeIfBlmT-25" value="" style="rhombus;whiteSpace=wrap;html=1;" parent="kdYlDeyTlTQbeeIfBlmT-4" vertex="1">
          <mxGeometry x="1010" y="55" width="50" height="50" as="geometry" />
        </mxCell>
        <mxCell id="kdYlDeyTlTQbeeIfBlmT-30" value="" style="endArrow=classic;html=1;rounded=0;entryX=0;entryY=0.5;entryDx=0;entryDy=0;" parent="kdYlDeyTlTQbeeIfBlmT-4" target="kdYlDeyTlTQbeeIfBlmT-6" edge="1">
          <mxGeometry width="50" height="50" relative="1" as="geometry">
            <mxPoint x="70" y="80" as="sourcePoint" />
            <mxPoint x="120" y="30" as="targetPoint" />
          </mxGeometry>
        </mxCell>
        <mxCell id="kdYlDeyTlTQbeeIfBlmT-31" value="" style="endArrow=classic;html=1;rounded=0;entryX=0;entryY=0.5;entryDx=0;entryDy=0;" parent="kdYlDeyTlTQbeeIfBlmT-4" target="kdYlDeyTlTQbeeIfBlmT-7" edge="1">
          <mxGeometry width="50" height="50" relative="1" as="geometry">
            <mxPoint x="160" y="80" as="sourcePoint" />
            <mxPoint x="210" y="30" as="targetPoint" />
          </mxGeometry>
        </mxCell>
        <mxCell id="kdYlDeyTlTQbeeIfBlmT-42" value="" style="endArrow=classic;html=1;rounded=0;entryX=0.444;entryY=0;entryDx=0;entryDy=0;entryPerimeter=0;flowAnimation=1;" parent="kdYlDeyTlTQbeeIfBlmT-4" target="kdYlDeyTlTQbeeIfBlmT-17" edge="1">
          <mxGeometry width="50" height="50" relative="1" as="geometry">
            <mxPoint x="700" y="110" as="sourcePoint" />
            <mxPoint x="750" y="60" as="targetPoint" />
          </mxGeometry>
        </mxCell>
        <mxCell id="kdYlDeyTlTQbeeIfBlmT-50" value="" style="endArrow=classic;html=1;rounded=0;" parent="kdYlDeyTlTQbeeIfBlmT-4" target="kdYlDeyTlTQbeeIfBlmT-25" edge="1">
          <mxGeometry width="50" height="50" relative="1" as="geometry">
            <mxPoint x="970" y="80" as="sourcePoint" />
            <mxPoint x="1020" y="30" as="targetPoint" />
          </mxGeometry>
        </mxCell>
        <mxCell id="kdYlDeyTlTQbeeIfBlmT-51" value="" style="endArrow=classic;html=1;rounded=0;entryX=0.5;entryY=0;entryDx=0;entryDy=0;" parent="kdYlDeyTlTQbeeIfBlmT-4" target="kdYlDeyTlTQbeeIfBlmT-27" edge="1">
          <mxGeometry width="50" height="50" relative="1" as="geometry">
            <mxPoint x="1060" y="80" as="sourcePoint" />
            <mxPoint x="1110" y="30" as="targetPoint" />
            <Array as="points">
              <mxPoint x="1450" y="80" />
            </Array>
          </mxGeometry>
        </mxCell>
        <mxCell id="ZspxZMsNpHE_sinugdT3-9" value="Bəli" style="edgeLabel;html=1;align=center;verticalAlign=middle;resizable=0;points=[];" parent="kdYlDeyTlTQbeeIfBlmT-51" vertex="1" connectable="0">
          <mxGeometry x="-0.1028" y="-1" relative="1" as="geometry">
            <mxPoint as="offset" />
          </mxGeometry>
        </mxCell>
        <mxCell id="ZspxZMsNpHE_sinugdT3-10" value="" style="endArrow=classic;html=1;rounded=0;entryX=0;entryY=0.5;entryDx=0;entryDy=0;" parent="kdYlDeyTlTQbeeIfBlmT-4" target="kdYlDeyTlTQbeeIfBlmT-16" edge="1">
          <mxGeometry width="50" height="50" relative="1" as="geometry">
            <mxPoint x="620" y="80" as="sourcePoint" />
            <mxPoint x="670" y="30" as="targetPoint" />
          </mxGeometry>
        </mxCell>
        <mxCell id="ZspxZMsNpHE_sinugdT3-11" value="" style="endArrow=classic;html=1;rounded=0;entryX=0;entryY=0.5;entryDx=0;entryDy=0;" parent="kdYlDeyTlTQbeeIfBlmT-4" target="kdYlDeyTlTQbeeIfBlmT-15" edge="1">
          <mxGeometry width="50" height="50" relative="1" as="geometry">
            <mxPoint x="500" y="80" as="sourcePoint" />
            <mxPoint x="550" y="30" as="targetPoint" />
          </mxGeometry>
        </mxCell>
        <mxCell id="SNdT1yUu_hXYfLESQq5n-31" value="" style="endArrow=none;html=1;rounded=0;entryX=0.494;entryY=1.019;entryDx=0;entryDy=0;entryPerimeter=0;opacity=50;startFill=0;" parent="kdYlDeyTlTQbeeIfBlmT-4" edge="1">
          <mxGeometry width="50" height="50" relative="1" as="geometry">
            <mxPoint x="470" y="50" as="sourcePoint" />
            <mxPoint x="469.1600000000001" y="-89.42999999999995" as="targetPoint" />
          </mxGeometry>
        </mxCell>
        <mxCell id="SNdT1yUu_hXYfLESQq5n-32" value="" style="endArrow=none;html=1;rounded=0;entryX=0.51;entryY=1;entryDx=0;entryDy=0;entryPerimeter=0;startFill=0;opacity=50;" parent="kdYlDeyTlTQbeeIfBlmT-4" edge="1">
          <mxGeometry width="50" height="50" relative="1" as="geometry">
            <mxPoint x="690" y="50" as="sourcePoint" />
            <mxPoint x="691.4000000000001" y="-100" as="targetPoint" />
          </mxGeometry>
        </mxCell>
        <mxCell id="IZYu-i1K3xVaKCEkxSd0-1" value="" style="endArrow=classic;html=1;rounded=0;entryX=0;entryY=0.5;entryDx=0;entryDy=0;" parent="kdYlDeyTlTQbeeIfBlmT-4" target="kdYlDeyTlTQbeeIfBlmT-11" edge="1">
          <mxGeometry width="50" height="50" relative="1" as="geometry">
            <mxPoint x="290" y="80" as="sourcePoint" />
            <mxPoint x="340" y="30" as="targetPoint" />
          </mxGeometry>
        </mxCell>
        <mxCell id="IZYu-i1K3xVaKCEkxSd0-2" value="" style="endArrow=classic;html=1;rounded=0;entryX=0;entryY=0.5;entryDx=0;entryDy=0;" parent="kdYlDeyTlTQbeeIfBlmT-4" target="kdYlDeyTlTQbeeIfBlmT-12" edge="1">
          <mxGeometry width="50" height="50" relative="1" as="geometry">
            <mxPoint x="420" y="80" as="sourcePoint" />
            <mxPoint x="470" y="30" as="targetPoint" />
          </mxGeometry>
        </mxCell>
        <mxCell id="UNSO00Iim9R5y67C4yJD-2" value="Geri bildirimin göndərilməsi" style="rounded=0;whiteSpace=wrap;html=1;" parent="kdYlDeyTlTQbeeIfBlmT-4" vertex="1">
          <mxGeometry x="1640" y="55" width="90" height="50" as="geometry" />
        </mxCell>
        <mxCell id="UNSO00Iim9R5y67C4yJD-10" value="Geri bildirim uğurla göndərildi" style="rounded=0;whiteSpace=wrap;html=1;" parent="kdYlDeyTlTQbeeIfBlmT-4" vertex="1">
          <mxGeometry x="1760" y="55" width="100" height="50" as="geometry" />
        </mxCell>
        <mxCell id="UNSO00Iim9R5y67C4yJD-1" value="Hər hansı problem yaşadınız?" style="rhombus;whiteSpace=wrap;html=1;" parent="kdYlDeyTlTQbeeIfBlmT-4" vertex="1">
          <mxGeometry x="1510" y="35" width="90" height="90" as="geometry" />
        </mxCell>
        <mxCell id="UNSO00Iim9R5y67C4yJD-14" value="" style="endArrow=classic;html=1;rounded=0;entryX=0;entryY=0.5;entryDx=0;entryDy=0;" parent="kdYlDeyTlTQbeeIfBlmT-4" target="UNSO00Iim9R5y67C4yJD-2" edge="1">
          <mxGeometry width="50" height="50" relative="1" as="geometry">
            <mxPoint x="1580" y="80" as="sourcePoint" />
            <mxPoint x="1630" y="30" as="targetPoint" />
          </mxGeometry>
        </mxCell>
        <mxCell id="UNSO00Iim9R5y67C4yJD-15" value="Bəli" style="edgeLabel;html=1;align=center;verticalAlign=middle;resizable=0;points=[];" parent="UNSO00Iim9R5y67C4yJD-14" vertex="1" connectable="0">
          <mxGeometry x="-0.0989" y="-1" relative="1" as="geometry">
            <mxPoint as="offset" />
          </mxGeometry>
        </mxCell>
        <mxCell id="UNSO00Iim9R5y67C4yJD-16" value="" style="endArrow=classic;html=1;rounded=0;entryX=0;entryY=0.5;entryDx=0;entryDy=0;exitX=1;exitY=0.5;exitDx=0;exitDy=0;" parent="kdYlDeyTlTQbeeIfBlmT-4" source="UNSO00Iim9R5y67C4yJD-2" target="UNSO00Iim9R5y67C4yJD-10" edge="1">
          <mxGeometry width="50" height="50" relative="1" as="geometry">
            <mxPoint x="1730" y="85" as="sourcePoint" />
            <mxPoint x="1780" y="35" as="targetPoint" />
          </mxGeometry>
        </mxCell>
        <mxCell id="UNSO00Iim9R5y67C4yJD-18" value="" style="ellipse;whiteSpace=wrap;html=1;aspect=fixed;" parent="kdYlDeyTlTQbeeIfBlmT-4" vertex="1">
          <mxGeometry x="1910" y="55" width="50" height="50" as="geometry" />
        </mxCell>
        <mxCell id="UNSO00Iim9R5y67C4yJD-19" value="" style="endArrow=classic;html=1;rounded=0;entryX=0;entryY=0.5;entryDx=0;entryDy=0;" parent="kdYlDeyTlTQbeeIfBlmT-4" target="UNSO00Iim9R5y67C4yJD-18" edge="1">
          <mxGeometry width="50" height="50" relative="1" as="geometry">
            <mxPoint x="1860" y="80" as="sourcePoint" />
            <mxPoint x="1910" y="35" as="targetPoint" />
          </mxGeometry>
        </mxCell>
        <mxCell id="kdYlDeyTlTQbeeIfBlmT-53" value="" style="endArrow=classic;html=1;rounded=0;entryX=0.5;entryY=1;entryDx=0;entryDy=0;exitX=0.5;exitY=1;exitDx=0;exitDy=0;" parent="1" source="kdYlDeyTlTQbeeIfBlmT-25" target="kdYlDeyTlTQbeeIfBlmT-24" edge="1">
          <mxGeometry width="50" height="50" relative="1" as="geometry">
            <mxPoint x="1080" y="185" as="sourcePoint" />
            <mxPoint x="1720" y="440" as="targetPoint" />
            <Array as="points">
              <mxPoint x="1075" y="260" />
              <mxPoint x="1320" y="260" />
              <mxPoint x="1320" y="500" />
              <mxPoint x="1385" y="500" />
            </Array>
          </mxGeometry>
        </mxCell>
        <mxCell id="IZYu-i1K3xVaKCEkxSd0-4" value="Xeyr" style="edgeLabel;html=1;align=center;verticalAlign=middle;resizable=0;points=[];" parent="kdYlDeyTlTQbeeIfBlmT-53" vertex="1" connectable="0">
          <mxGeometry x="0.0344" y="1" relative="1" as="geometry">
            <mxPoint as="offset" />
          </mxGeometry>
        </mxCell>
        <mxCell id="SNdT1yUu_hXYfLESQq5n-5" value="&lt;span style=&quot;font-weight: 700;&quot;&gt;Profil məlumatları&lt;/span&gt;" style="swimlane;fontStyle=0;childLayout=stackLayout;horizontal=1;startSize=30;horizontalStack=0;resizeParent=1;resizeParentMax=0;resizeLast=0;collapsible=1;marginBottom=0;whiteSpace=wrap;html=1;" parent="1" vertex="1">
          <mxGeometry x="210" y="-170" width="140" height="210" as="geometry" />
        </mxCell>
        <mxCell id="SNdT1yUu_hXYfLESQq5n-6" value="Yaş" style="text;strokeColor=none;fillColor=none;align=left;verticalAlign=middle;spacingLeft=4;spacingRight=4;overflow=hidden;points=[[0,0.5],[1,0.5]];portConstraint=eastwest;rotatable=0;whiteSpace=wrap;html=1;" parent="SNdT1yUu_hXYfLESQq5n-5" vertex="1">
          <mxGeometry y="30" width="140" height="30" as="geometry" />
        </mxCell>
        <mxCell id="SNdT1yUu_hXYfLESQq5n-7" value="Cins" style="text;strokeColor=none;fillColor=none;align=left;verticalAlign=middle;spacingLeft=4;spacingRight=4;overflow=hidden;points=[[0,0.5],[1,0.5]];portConstraint=eastwest;rotatable=0;whiteSpace=wrap;html=1;" parent="SNdT1yUu_hXYfLESQq5n-5" vertex="1">
          <mxGeometry y="60" width="140" height="30" as="geometry" />
        </mxCell>
        <mxCell id="SNdT1yUu_hXYfLESQq5n-16" value="Boy" style="text;strokeColor=none;fillColor=none;align=left;verticalAlign=middle;spacingLeft=4;spacingRight=4;overflow=hidden;points=[[0,0.5],[1,0.5]];portConstraint=eastwest;rotatable=0;whiteSpace=wrap;html=1;" parent="SNdT1yUu_hXYfLESQq5n-5" vertex="1">
          <mxGeometry y="90" width="140" height="30" as="geometry" />
        </mxCell>
        <mxCell id="SNdT1yUu_hXYfLESQq5n-15" value="Çəki" style="text;strokeColor=none;fillColor=none;align=left;verticalAlign=middle;spacingLeft=4;spacingRight=4;overflow=hidden;points=[[0,0.5],[1,0.5]];portConstraint=eastwest;rotatable=0;whiteSpace=wrap;html=1;" parent="SNdT1yUu_hXYfLESQq5n-5" vertex="1">
          <mxGeometry y="120" width="140" height="30" as="geometry" />
        </mxCell>
        <mxCell id="SNdT1yUu_hXYfLESQq5n-14" value="Allergiyalar" style="text;strokeColor=none;fillColor=none;align=left;verticalAlign=middle;spacingLeft=4;spacingRight=4;overflow=hidden;points=[[0,0.5],[1,0.5]];portConstraint=eastwest;rotatable=0;whiteSpace=wrap;html=1;" parent="SNdT1yUu_hXYfLESQq5n-5" vertex="1">
          <mxGeometry y="150" width="140" height="30" as="geometry" />
        </mxCell>
        <mxCell id="SNdT1yUu_hXYfLESQq5n-8" value="Səhiyyə vəziyyəti" style="text;strokeColor=none;fillColor=none;align=left;verticalAlign=middle;spacingLeft=4;spacingRight=4;overflow=hidden;points=[[0,0.5],[1,0.5]];portConstraint=eastwest;rotatable=0;whiteSpace=wrap;html=1;" parent="SNdT1yUu_hXYfLESQq5n-5" vertex="1">
          <mxGeometry y="180" width="140" height="30" as="geometry" />
        </mxCell>
        <mxCell id="SNdT1yUu_hXYfLESQq5n-17" value="&lt;span style=&quot;font-weight: 700;&quot;&gt;Hədəflər&lt;/span&gt;" style="swimlane;fontStyle=0;childLayout=stackLayout;horizontal=1;startSize=30;horizontalStack=0;resizeParent=1;resizeParentMax=0;resizeLast=0;collapsible=1;marginBottom=0;whiteSpace=wrap;html=1;" parent="1" vertex="1">
          <mxGeometry x="440" y="-130" width="140" height="120" as="geometry" />
        </mxCell>
        <mxCell id="SNdT1yUu_hXYfLESQq5n-18" value="Arıqlamaq" style="text;strokeColor=none;fillColor=none;align=left;verticalAlign=middle;spacingLeft=4;spacingRight=4;overflow=hidden;points=[[0,0.5],[1,0.5]];portConstraint=eastwest;rotatable=0;whiteSpace=wrap;html=1;" parent="SNdT1yUu_hXYfLESQq5n-17" vertex="1">
          <mxGeometry y="30" width="140" height="30" as="geometry" />
        </mxCell>
        <mxCell id="SNdT1yUu_hXYfLESQq5n-21" value="Kilo almaq" style="text;strokeColor=none;fillColor=none;align=left;verticalAlign=middle;spacingLeft=4;spacingRight=4;overflow=hidden;points=[[0,0.5],[1,0.5]];portConstraint=eastwest;rotatable=0;whiteSpace=wrap;html=1;" parent="SNdT1yUu_hXYfLESQq5n-17" vertex="1">
          <mxGeometry y="60" width="140" height="30" as="geometry" />
        </mxCell>
        <mxCell id="SNdT1yUu_hXYfLESQq5n-19" value="Balanslı qidalanma" style="text;strokeColor=none;fillColor=none;align=left;verticalAlign=middle;spacingLeft=4;spacingRight=4;overflow=hidden;points=[[0,0.5],[1,0.5]];portConstraint=eastwest;rotatable=0;whiteSpace=wrap;html=1;" parent="SNdT1yUu_hXYfLESQq5n-17" vertex="1">
          <mxGeometry y="90" width="140" height="30" as="geometry" />
        </mxCell>
        <mxCell id="SNdT1yUu_hXYfLESQq5n-24" value="&lt;span style=&quot;font-weight: 700;&quot;&gt;Qida məlumatları&lt;/span&gt;" style="swimlane;fontStyle=0;childLayout=stackLayout;horizontal=1;startSize=30;horizontalStack=0;resizeParent=1;resizeParentMax=0;resizeLast=0;collapsible=1;marginBottom=0;whiteSpace=wrap;html=1;" parent="1" vertex="1">
          <mxGeometry x="660" y="-110" width="140" height="90" as="geometry" />
        </mxCell>
        <mxCell id="SNdT1yUu_hXYfLESQq5n-25" value="Qidanın adı&amp;nbsp;" style="text;strokeColor=none;fillColor=none;align=left;verticalAlign=middle;spacingLeft=4;spacingRight=4;overflow=hidden;points=[[0,0.5],[1,0.5]];portConstraint=eastwest;rotatable=0;whiteSpace=wrap;html=1;" parent="SNdT1yUu_hXYfLESQq5n-24" vertex="1">
          <mxGeometry y="30" width="140" height="30" as="geometry" />
        </mxCell>
        <mxCell id="SNdT1yUu_hXYfLESQq5n-29" value="Miqdarı" style="text;strokeColor=none;fillColor=none;align=left;verticalAlign=middle;spacingLeft=4;spacingRight=4;overflow=hidden;points=[[0,0.5],[1,0.5]];portConstraint=eastwest;rotatable=0;whiteSpace=wrap;html=1;" parent="SNdT1yUu_hXYfLESQq5n-24" vertex="1">
          <mxGeometry y="60" width="140" height="30" as="geometry" />
        </mxCell>
        <mxCell id="SNdT1yUu_hXYfLESQq5n-30" value="" style="endArrow=none;html=1;rounded=0;entryX=0.525;entryY=1.063;entryDx=0;entryDy=0;entryPerimeter=0;opacity=40;startFill=0;exitX=0.5;exitY=0;exitDx=0;exitDy=0;" parent="1" source="kdYlDeyTlTQbeeIfBlmT-7" target="SNdT1yUu_hXYfLESQq5n-8" edge="1">
          <mxGeometry width="50" height="50" relative="1" as="geometry">
            <mxPoint x="280" y="130" as="sourcePoint" />
            <mxPoint x="330" y="80" as="targetPoint" />
          </mxGeometry>
        </mxCell>
        <mxCell id="UNSO00Iim9R5y67C4yJD-13" value="" style="endArrow=classic;html=1;rounded=0;entryX=0;entryY=0.5;entryDx=0;entryDy=0;" parent="1" target="UNSO00Iim9R5y67C4yJD-1" edge="1">
          <mxGeometry width="50" height="50" relative="1" as="geometry">
            <mxPoint x="1500" y="410" as="sourcePoint" />
            <mxPoint x="1490" as="targetPoint" />
            <Array as="points">
              <mxPoint x="1500" y="160" />
            </Array>
          </mxGeometry>
        </mxCell>
        <mxCell id="BzFbdRr0tmBWjTQcKz3L-5" value="Qida dəyərləri" style="swimlane;fontStyle=0;childLayout=stackLayout;horizontal=1;startSize=30;horizontalStack=0;resizeParent=1;resizeParentMax=0;resizeLast=0;collapsible=1;marginBottom=0;whiteSpace=wrap;html=1;" vertex="1" parent="1">
          <mxGeometry x="680" y="590" width="140" height="180" as="geometry" />
        </mxCell>
        <mxCell id="BzFbdRr0tmBWjTQcKz3L-6" value="Kalori" style="text;strokeColor=none;fillColor=none;align=left;verticalAlign=middle;spacingLeft=4;spacingRight=4;overflow=hidden;points=[[0,0.5],[1,0.5]];portConstraint=eastwest;rotatable=0;whiteSpace=wrap;html=1;" vertex="1" parent="BzFbdRr0tmBWjTQcKz3L-5">
          <mxGeometry y="30" width="140" height="30" as="geometry" />
        </mxCell>
        <mxCell id="BzFbdRr0tmBWjTQcKz3L-7" value="Yağ" style="text;strokeColor=none;fillColor=none;align=left;verticalAlign=middle;spacingLeft=4;spacingRight=4;overflow=hidden;points=[[0,0.5],[1,0.5]];portConstraint=eastwest;rotatable=0;whiteSpace=wrap;html=1;" vertex="1" parent="BzFbdRr0tmBWjTQcKz3L-5">
          <mxGeometry y="60" width="140" height="30" as="geometry" />
        </mxCell>
        <mxCell id="BzFbdRr0tmBWjTQcKz3L-8" value="Zülal" style="text;strokeColor=none;fillColor=none;align=left;verticalAlign=middle;spacingLeft=4;spacingRight=4;overflow=hidden;points=[[0,0.5],[1,0.5]];portConstraint=eastwest;rotatable=0;whiteSpace=wrap;html=1;" vertex="1" parent="BzFbdRr0tmBWjTQcKz3L-5">
          <mxGeometry y="90" width="140" height="30" as="geometry" />
        </mxCell>
        <mxCell id="BzFbdRr0tmBWjTQcKz3L-9" value="Karbohidrat" style="text;strokeColor=none;fillColor=none;align=left;verticalAlign=middle;spacingLeft=4;spacingRight=4;overflow=hidden;points=[[0,0.5],[1,0.5]];portConstraint=eastwest;rotatable=0;whiteSpace=wrap;html=1;" vertex="1" parent="BzFbdRr0tmBWjTQcKz3L-5">
          <mxGeometry y="120" width="140" height="30" as="geometry" />
        </mxCell>
        <mxCell id="BzFbdRr0tmBWjTQcKz3L-10" value="Şəkər" style="text;strokeColor=none;fillColor=none;align=left;verticalAlign=middle;spacingLeft=4;spacingRight=4;overflow=hidden;points=[[0,0.5],[1,0.5]];portConstraint=eastwest;rotatable=0;whiteSpace=wrap;html=1;" vertex="1" parent="BzFbdRr0tmBWjTQcKz3L-5">
          <mxGeometry y="150" width="140" height="30" as="geometry" />
        </mxCell>
        <mxCell id="BzFbdRr0tmBWjTQcKz3L-11" style="edgeStyle=orthogonalEdgeStyle;rounded=0;orthogonalLoop=1;jettySize=auto;html=1;entryX=0.435;entryY=0.013;entryDx=0;entryDy=0;entryPerimeter=0;endArrow=none;startFill=0;strokeColor=light-dark(#b2aeae, #393939);" edge="1" parent="1" source="kdYlDeyTlTQbeeIfBlmT-17" target="BzFbdRr0tmBWjTQcKz3L-5">
          <mxGeometry relative="1" as="geometry" />
        </mxCell>
        <mxCell id="BzFbdRr0tmBWjTQcKz3L-14" value="Fərdi tövsiyə" style="swimlane;fontStyle=0;childLayout=stackLayout;horizontal=1;startSize=30;horizontalStack=0;resizeParent=1;resizeParentMax=0;resizeLast=0;collapsible=1;marginBottom=0;whiteSpace=wrap;html=1;" vertex="1" parent="1">
          <mxGeometry x="1010" y="590" width="140" height="270" as="geometry" />
        </mxCell>
        <mxCell id="BzFbdRr0tmBWjTQcKz3L-15" value="Qida adı" style="text;strokeColor=none;fillColor=none;align=left;verticalAlign=middle;spacingLeft=4;spacingRight=4;overflow=hidden;points=[[0,0.5],[1,0.5]];portConstraint=eastwest;rotatable=0;whiteSpace=wrap;html=1;" vertex="1" parent="BzFbdRr0tmBWjTQcKz3L-14">
          <mxGeometry y="30" width="140" height="30" as="geometry" />
        </mxCell>
        <mxCell id="BzFbdRr0tmBWjTQcKz3L-16" value="Miqdar" style="text;strokeColor=none;fillColor=none;align=left;verticalAlign=middle;spacingLeft=4;spacingRight=4;overflow=hidden;points=[[0,0.5],[1,0.5]];portConstraint=eastwest;rotatable=0;whiteSpace=wrap;html=1;" vertex="1" parent="BzFbdRr0tmBWjTQcKz3L-14">
          <mxGeometry y="60" width="140" height="30" as="geometry" />
        </mxCell>
        <mxCell id="BzFbdRr0tmBWjTQcKz3L-17" value="Kalori" style="text;strokeColor=none;fillColor=none;align=left;verticalAlign=middle;spacingLeft=4;spacingRight=4;overflow=hidden;points=[[0,0.5],[1,0.5]];portConstraint=eastwest;rotatable=0;whiteSpace=wrap;html=1;" vertex="1" parent="BzFbdRr0tmBWjTQcKz3L-14">
          <mxGeometry y="90" width="140" height="30" as="geometry" />
        </mxCell>
        <mxCell id="BzFbdRr0tmBWjTQcKz3L-18" value="Zülal" style="text;strokeColor=none;fillColor=none;align=left;verticalAlign=middle;spacingLeft=4;spacingRight=4;overflow=hidden;points=[[0,0.5],[1,0.5]];portConstraint=eastwest;rotatable=0;whiteSpace=wrap;html=1;" vertex="1" parent="BzFbdRr0tmBWjTQcKz3L-14">
          <mxGeometry y="120" width="140" height="30" as="geometry" />
        </mxCell>
        <mxCell id="BzFbdRr0tmBWjTQcKz3L-19" value="Yağ" style="text;strokeColor=none;fillColor=none;align=left;verticalAlign=middle;spacingLeft=4;spacingRight=4;overflow=hidden;points=[[0,0.5],[1,0.5]];portConstraint=eastwest;rotatable=0;whiteSpace=wrap;html=1;" vertex="1" parent="BzFbdRr0tmBWjTQcKz3L-14">
          <mxGeometry y="150" width="140" height="30" as="geometry" />
        </mxCell>
        <mxCell id="BzFbdRr0tmBWjTQcKz3L-20" value="Karbohidrat" style="text;strokeColor=none;fillColor=none;align=left;verticalAlign=middle;spacingLeft=4;spacingRight=4;overflow=hidden;points=[[0,0.5],[1,0.5]];portConstraint=eastwest;rotatable=0;whiteSpace=wrap;html=1;" vertex="1" parent="BzFbdRr0tmBWjTQcKz3L-14">
          <mxGeometry y="180" width="140" height="30" as="geometry" />
        </mxCell>
        <mxCell id="BzFbdRr0tmBWjTQcKz3L-21" value="Vitamin və minerallar" style="text;strokeColor=none;fillColor=none;align=left;verticalAlign=middle;spacingLeft=4;spacingRight=4;overflow=hidden;points=[[0,0.5],[1,0.5]];portConstraint=eastwest;rotatable=0;whiteSpace=wrap;html=1;" vertex="1" parent="BzFbdRr0tmBWjTQcKz3L-14">
          <mxGeometry y="210" width="140" height="30" as="geometry" />
        </mxCell>
        <mxCell id="BzFbdRr0tmBWjTQcKz3L-22" value="Əlavə tövsiyələr" style="text;strokeColor=none;fillColor=none;align=left;verticalAlign=middle;spacingLeft=4;spacingRight=4;overflow=hidden;points=[[0,0.5],[1,0.5]];portConstraint=eastwest;rotatable=0;whiteSpace=wrap;html=1;" vertex="1" parent="BzFbdRr0tmBWjTQcKz3L-14">
          <mxGeometry y="240" width="140" height="30" as="geometry" />
        </mxCell>
        <mxCell id="BzFbdRr0tmBWjTQcKz3L-24" style="edgeStyle=orthogonalEdgeStyle;rounded=0;orthogonalLoop=1;jettySize=auto;html=1;entryX=0.584;entryY=0.018;entryDx=0;entryDy=0;entryPerimeter=0;endArrow=none;startFill=0;strokeColor=#A6A6A6;" edge="1" parent="1" source="kdYlDeyTlTQbeeIfBlmT-21" target="BzFbdRr0tmBWjTQcKz3L-14">
          <mxGeometry relative="1" as="geometry" />
        </mxCell>
      </root>
    </mxGraphModel>
  </diagram>
  <diagram id="s-WKMg-hCW2QDR2WOSpE" name="Страница — 2">
    <mxGraphModel dx="1161" dy="1000" grid="1" gridSize="10" guides="1" tooltips="1" connect="1" arrows="1" fold="1" page="0" pageScale="1" pageWidth="827" pageHeight="1169" math="0" shadow="0">
      <root>
        <mxCell id="0" />
        <mxCell id="1" parent="0" />
        <mxCell id="5EK9TxtPr53B_dHSacFg-1" value="İstifadəçi" style="swimlane;startSize=20;horizontal=0;html=1;whiteSpace=wrap;" parent="1" vertex="1">
          <mxGeometry width="1240" height="160" as="geometry" />
        </mxCell>
        <mxCell id="ybondK_pjBPRwXlyH06H-2" value="Paketin seçilməsi" style="rounded=0;whiteSpace=wrap;html=1;" parent="5EK9TxtPr53B_dHSacFg-1" vertex="1">
          <mxGeometry x="100" y="50" width="80" height="50" as="geometry" />
        </mxCell>
        <mxCell id="ybondK_pjBPRwXlyH06H-3" value="İstifadəçi premium versiyanı seçdi?" style="rhombus;whiteSpace=wrap;html=1;" parent="5EK9TxtPr53B_dHSacFg-1" vertex="1">
          <mxGeometry x="360" y="40" width="90" height="80" as="geometry" />
        </mxCell>
        <mxCell id="ybondK_pjBPRwXlyH06H-5" value="Ödəniş məlumatlarının daxil edilməsi" style="rounded=0;whiteSpace=wrap;html=1;" parent="5EK9TxtPr53B_dHSacFg-1" vertex="1">
          <mxGeometry x="500" y="60" width="80" height="40" as="geometry" />
        </mxCell>
        <mxCell id="ybondK_pjBPRwXlyH06H-16" value="" style="endArrow=classic;html=1;rounded=0;entryX=0;entryY=0.5;entryDx=0;entryDy=0;" parent="5EK9TxtPr53B_dHSacFg-1" target="ybondK_pjBPRwXlyH06H-5" edge="1">
          <mxGeometry width="50" height="50" relative="1" as="geometry">
            <mxPoint x="450" y="80" as="sourcePoint" />
            <mxPoint x="480" y="30" as="targetPoint" />
          </mxGeometry>
        </mxCell>
        <mxCell id="ybondK_pjBPRwXlyH06H-17" value="Bəli" style="edgeLabel;html=1;align=center;verticalAlign=middle;resizable=0;points=[];" parent="ybondK_pjBPRwXlyH06H-16" vertex="1" connectable="0">
          <mxGeometry x="-0.1016" y="-2" relative="1" as="geometry">
            <mxPoint as="offset" />
          </mxGeometry>
        </mxCell>
        <mxCell id="OiAWure9Cqxh_FAEWYYr-1" value="İstifadəçi paket seçimini edir" style="rounded=0;whiteSpace=wrap;html=1;" vertex="1" parent="5EK9TxtPr53B_dHSacFg-1">
          <mxGeometry x="230" y="50" width="70" height="50" as="geometry" />
        </mxCell>
        <mxCell id="OiAWure9Cqxh_FAEWYYr-2" value="Ödəniş sisteminə sorğu göndərilir" style="rounded=0;whiteSpace=wrap;html=1;" vertex="1" parent="5EK9TxtPr53B_dHSacFg-1">
          <mxGeometry x="610" y="60" width="100" height="40" as="geometry" />
        </mxCell>
        <mxCell id="OiAWure9Cqxh_FAEWYYr-3" value="" style="endArrow=classic;html=1;rounded=0;entryX=0;entryY=0.5;entryDx=0;entryDy=0;" edge="1" parent="5EK9TxtPr53B_dHSacFg-1" target="OiAWure9Cqxh_FAEWYYr-2">
          <mxGeometry width="50" height="50" relative="1" as="geometry">
            <mxPoint x="580" y="80" as="sourcePoint" />
            <mxPoint x="630" y="30" as="targetPoint" />
          </mxGeometry>
        </mxCell>
        <mxCell id="ybondK_pjBPRwXlyH06H-8" value="Ödənişin təsdiqlənməsi gözlənilir" style="rounded=0;whiteSpace=wrap;html=1;" parent="5EK9TxtPr53B_dHSacFg-1" vertex="1">
          <mxGeometry x="740" y="60" width="100" height="40" as="geometry" />
        </mxCell>
        <mxCell id="ybondK_pjBPRwXlyH06H-9" value="Ödəniş təsdiqləndi?" style="rhombus;whiteSpace=wrap;html=1;" parent="5EK9TxtPr53B_dHSacFg-1" vertex="1">
          <mxGeometry x="880" y="45" width="76" height="70" as="geometry" />
        </mxCell>
        <mxCell id="ybondK_pjBPRwXlyH06H-20" value="" style="endArrow=classic;html=1;rounded=0;entryX=0;entryY=0.5;entryDx=0;entryDy=0;exitX=1;exitY=0.5;exitDx=0;exitDy=0;" parent="5EK9TxtPr53B_dHSacFg-1" source="ybondK_pjBPRwXlyH06H-8" target="ybondK_pjBPRwXlyH06H-9" edge="1">
          <mxGeometry width="50" height="50" relative="1" as="geometry">
            <mxPoint x="530" y="370" as="sourcePoint" />
            <mxPoint x="580" y="320" as="targetPoint" />
          </mxGeometry>
        </mxCell>
        <mxCell id="ybondK_pjBPRwXlyH06H-6" value="Premium imkanlarının aktivləşdirilməsi" style="rounded=0;whiteSpace=wrap;html=1;" parent="5EK9TxtPr53B_dHSacFg-1" vertex="1">
          <mxGeometry x="1050" y="10" width="95" height="55" as="geometry" />
        </mxCell>
        <mxCell id="ybondK_pjBPRwXlyH06H-7" value="Ödənişin yenidən cəhd edilməsi və ya default versiyaya keçid" style="rounded=0;whiteSpace=wrap;html=1;" parent="5EK9TxtPr53B_dHSacFg-1" vertex="1">
          <mxGeometry x="1032.5" y="100" width="130" height="40" as="geometry" />
        </mxCell>
        <mxCell id="OiAWure9Cqxh_FAEWYYr-11" value="" style="endArrow=classic;html=1;rounded=0;entryX=0;entryY=0.5;entryDx=0;entryDy=0;" edge="1" parent="5EK9TxtPr53B_dHSacFg-1" target="ybondK_pjBPRwXlyH06H-6">
          <mxGeometry width="50" height="50" relative="1" as="geometry">
            <mxPoint x="956" y="80" as="sourcePoint" />
            <mxPoint x="1006" y="30" as="targetPoint" />
            <Array as="points">
              <mxPoint x="990" y="80" />
              <mxPoint x="990" y="38" />
            </Array>
          </mxGeometry>
        </mxCell>
        <mxCell id="OiAWure9Cqxh_FAEWYYr-12" value="" style="endArrow=classic;html=1;rounded=0;entryX=0;entryY=0.5;entryDx=0;entryDy=0;" edge="1" parent="5EK9TxtPr53B_dHSacFg-1" target="ybondK_pjBPRwXlyH06H-7">
          <mxGeometry width="50" height="50" relative="1" as="geometry">
            <mxPoint x="956" y="80" as="sourcePoint" />
            <mxPoint x="1006" y="30" as="targetPoint" />
            <Array as="points">
              <mxPoint x="990" y="80" />
              <mxPoint x="990" y="120" />
            </Array>
          </mxGeometry>
        </mxCell>
        <mxCell id="OiAWure9Cqxh_FAEWYYr-13" value="" style="endArrow=classic;html=1;rounded=0;entryX=0;entryY=0.5;entryDx=0;entryDy=0;" edge="1" parent="5EK9TxtPr53B_dHSacFg-1" target="ybondK_pjBPRwXlyH06H-8">
          <mxGeometry width="50" height="50" relative="1" as="geometry">
            <mxPoint x="710" y="80" as="sourcePoint" />
            <mxPoint x="760" y="30" as="targetPoint" />
          </mxGeometry>
        </mxCell>
        <mxCell id="OiAWure9Cqxh_FAEWYYr-16" value="" style="endArrow=classic;html=1;rounded=0;" edge="1" parent="5EK9TxtPr53B_dHSacFg-1" target="ybondK_pjBPRwXlyH06H-3">
          <mxGeometry width="50" height="50" relative="1" as="geometry">
            <mxPoint x="300" y="80" as="sourcePoint" />
            <mxPoint x="350" y="30" as="targetPoint" />
          </mxGeometry>
        </mxCell>
        <mxCell id="5EK9TxtPr53B_dHSacFg-2" value="Admin" style="swimlane;startSize=20;horizontal=0;html=1;whiteSpace=wrap;" parent="1" vertex="1">
          <mxGeometry y="280" width="1000" height="160" as="geometry" />
        </mxCell>
        <mxCell id="ybondK_pjBPRwXlyH06H-4" value="İstifadəçiyə default imkanların verilməsi" style="rounded=0;whiteSpace=wrap;html=1;" parent="5EK9TxtPr53B_dHSacFg-2" vertex="1">
          <mxGeometry x="260" y="60" width="100" height="40" as="geometry" />
        </mxCell>
        <mxCell id="ybondK_pjBPRwXlyH06H-10" value="İstifadəçiyə premium və default paket məlumatlarının təqdim olunması" style="rounded=0;whiteSpace=wrap;html=1;" parent="5EK9TxtPr53B_dHSacFg-2" vertex="1">
          <mxGeometry x="80" y="50" width="120" height="60" as="geometry" />
        </mxCell>
        <mxCell id="ybondK_pjBPRwXlyH06H-12" value="" style="endArrow=classic;html=1;rounded=0;entryX=0.5;entryY=0;entryDx=0;entryDy=0;exitX=0.5;exitY=1;exitDx=0;exitDy=0;" parent="1" source="ybondK_pjBPRwXlyH06H-3" target="ybondK_pjBPRwXlyH06H-4" edge="1">
          <mxGeometry width="50" height="50" relative="1" as="geometry">
            <mxPoint x="390" y="220" as="sourcePoint" />
            <mxPoint x="270" y="60" as="targetPoint" />
            <Array as="points">
              <mxPoint x="405" y="240" />
              <mxPoint x="310" y="240" />
            </Array>
          </mxGeometry>
        </mxCell>
        <mxCell id="ybondK_pjBPRwXlyH06H-13" value="Xeyr" style="edgeLabel;html=1;align=center;verticalAlign=middle;resizable=0;points=[];" parent="ybondK_pjBPRwXlyH06H-12" vertex="1" connectable="0">
          <mxGeometry x="-0.0935" y="-1" relative="1" as="geometry">
            <mxPoint as="offset" />
          </mxGeometry>
        </mxCell>
        <mxCell id="ybondK_pjBPRwXlyH06H-23" value="Ödəniş məlumatları" style="swimlane;fontStyle=0;childLayout=stackLayout;horizontal=1;startSize=30;horizontalStack=0;resizeParent=1;resizeParentMax=0;resizeLast=0;collapsible=1;marginBottom=0;whiteSpace=wrap;html=1;" parent="1" vertex="1">
          <mxGeometry x="470" y="-140" width="140" height="120" as="geometry" />
        </mxCell>
        <mxCell id="ybondK_pjBPRwXlyH06H-24" value="Kart nömrəsi" style="text;strokeColor=none;fillColor=none;align=left;verticalAlign=middle;spacingLeft=4;spacingRight=4;overflow=hidden;points=[[0,0.5],[1,0.5]];portConstraint=eastwest;rotatable=0;whiteSpace=wrap;html=1;" parent="ybondK_pjBPRwXlyH06H-23" vertex="1">
          <mxGeometry y="30" width="140" height="30" as="geometry" />
        </mxCell>
        <mxCell id="ybondK_pjBPRwXlyH06H-25" value="Kartın bitmə tarixi" style="text;strokeColor=none;fillColor=none;align=left;verticalAlign=middle;spacingLeft=4;spacingRight=4;overflow=hidden;points=[[0,0.5],[1,0.5]];portConstraint=eastwest;rotatable=0;whiteSpace=wrap;html=1;" parent="ybondK_pjBPRwXlyH06H-23" vertex="1">
          <mxGeometry y="60" width="140" height="30" as="geometry" />
        </mxCell>
        <mxCell id="ybondK_pjBPRwXlyH06H-33" value="" style="endArrow=none;html=1;rounded=0;entryX=0.5;entryY=0;entryDx=0;entryDy=0;opacity=50;startFill=0;" parent="ybondK_pjBPRwXlyH06H-23" target="ybondK_pjBPRwXlyH06H-5" edge="1">
          <mxGeometry width="50" height="50" relative="1" as="geometry">
            <mxPoint x="70" y="120" as="sourcePoint" />
            <mxPoint x="120" y="70" as="targetPoint" />
          </mxGeometry>
        </mxCell>
        <mxCell id="ybondK_pjBPRwXlyH06H-26" value="CVV kodu" style="text;strokeColor=none;fillColor=none;align=left;verticalAlign=middle;spacingLeft=4;spacingRight=4;overflow=hidden;points=[[0,0.5],[1,0.5]];portConstraint=eastwest;rotatable=0;whiteSpace=wrap;html=1;" parent="ybondK_pjBPRwXlyH06H-23" vertex="1">
          <mxGeometry y="90" width="140" height="30" as="geometry" />
        </mxCell>
        <mxCell id="ybondK_pjBPRwXlyH06H-27" value="Premium imkanlar" style="swimlane;fontStyle=0;childLayout=stackLayout;horizontal=1;startSize=30;horizontalStack=0;resizeParent=1;resizeParentMax=0;resizeLast=0;collapsible=1;marginBottom=0;whiteSpace=wrap;html=1;" parent="1" vertex="1">
          <mxGeometry x="40" y="480" width="210" height="120" as="geometry" />
        </mxCell>
        <mxCell id="ybondK_pjBPRwXlyH06H-28" value="&lt;span style=&quot;text-align: center; text-wrap-mode: nowrap;&quot;&gt;Limitsiz istifadə&lt;/span&gt;" style="text;strokeColor=none;fillColor=none;align=left;verticalAlign=middle;spacingLeft=4;spacingRight=4;overflow=hidden;points=[[0,0.5],[1,0.5]];portConstraint=eastwest;rotatable=0;whiteSpace=wrap;html=1;" parent="ybondK_pjBPRwXlyH06H-27" vertex="1">
          <mxGeometry y="30" width="210" height="30" as="geometry" />
        </mxCell>
        <mxCell id="ybondK_pjBPRwXlyH06H-29" value="&lt;div style=&quot;text-align: center; text-wrap-mode: nowrap;&quot;&gt;Detallı qida analizi&lt;/div&gt;" style="text;strokeColor=none;fillColor=none;align=left;verticalAlign=middle;spacingLeft=4;spacingRight=4;overflow=hidden;points=[[0,0.5],[1,0.5]];portConstraint=eastwest;rotatable=0;whiteSpace=wrap;html=1;" parent="ybondK_pjBPRwXlyH06H-27" vertex="1">
          <mxGeometry y="60" width="210" height="30" as="geometry" />
        </mxCell>
        <mxCell id="ybondK_pjBPRwXlyH06H-32" value="" style="endArrow=none;html=1;rounded=0;startFill=0;opacity=40;" parent="ybondK_pjBPRwXlyH06H-27" edge="1">
          <mxGeometry width="50" height="50" relative="1" as="geometry">
            <mxPoint x="100" as="sourcePoint" />
            <mxPoint x="100" y="-90" as="targetPoint" />
          </mxGeometry>
        </mxCell>
        <mxCell id="ybondK_pjBPRwXlyH06H-30" value="&lt;span style=&quot;text-align: center; text-wrap-mode: nowrap;&quot;&gt;Premium reseptlər və yemək planları&lt;/span&gt;" style="text;strokeColor=none;fillColor=none;align=left;verticalAlign=middle;spacingLeft=4;spacingRight=4;overflow=hidden;points=[[0,0.5],[1,0.5]];portConstraint=eastwest;rotatable=0;whiteSpace=wrap;html=1;" parent="ybondK_pjBPRwXlyH06H-27" vertex="1">
          <mxGeometry y="90" width="210" height="30" as="geometry" />
        </mxCell>
        <mxCell id="OiAWure9Cqxh_FAEWYYr-14" value="" style="endArrow=classic;html=1;rounded=0;entryX=0.5;entryY=0;entryDx=0;entryDy=0;exitX=0.5;exitY=1;exitDx=0;exitDy=0;" edge="1" parent="1" source="ybondK_pjBPRwXlyH06H-2" target="ybondK_pjBPRwXlyH06H-10">
          <mxGeometry width="50" height="50" relative="1" as="geometry">
            <mxPoint x="110" y="100" as="sourcePoint" />
            <mxPoint x="160" y="50" as="targetPoint" />
          </mxGeometry>
        </mxCell>
        <mxCell id="OiAWure9Cqxh_FAEWYYr-15" value="" style="endArrow=classic;html=1;rounded=0;entryX=0.5;entryY=1;entryDx=0;entryDy=0;exitX=0.75;exitY=0;exitDx=0;exitDy=0;flowAnimation=1;" edge="1" parent="1" source="ybondK_pjBPRwXlyH06H-10" target="OiAWure9Cqxh_FAEWYYr-1">
          <mxGeometry width="50" height="50" relative="1" as="geometry">
            <mxPoint x="180" y="80" as="sourcePoint" />
            <mxPoint x="230" y="30" as="targetPoint" />
            <Array as="points">
              <mxPoint x="170" y="200" />
              <mxPoint x="265" y="200" />
            </Array>
          </mxGeometry>
        </mxCell>
      </root>
    </mxGraphModel>
  </diagram>
</mxfile>
